<?xml version="1.0" encoding="UTF-8" standalone="no"?>
<!DOCTYPE svg PUBLIC "-//W3C//DTD SVG 1.1//EN" "http://www.w3.org/Graphics/SVG/1.1/DTD/svg11.dtd">
<svg version="1.1" xmlns="http://www.w3.org/2000/svg" xmlns:xlink="http://www.w3.org/1999/xlink" preserveAspectRatio="xMidYMid meet" viewBox="0 0 640 640" width="640" height="640"><defs><path d="M10 320C10 148.9 148.9 10 320 10C491.09 10 630 148.9 630 320C630 491.09 491.09 630 320 630C148.9 630 10 491.09 10 320Z" id="dfkJ6go2H"></path><path d="" id="a2MfxfRzhy"></path><path d="M307.7 20.49L301.66 21.11L295.68 21.96L289.79 23.05L283.97 24.36L278.24 25.89L272.61 27.65L267.07 29.62L261.64 31.79L256.31 34.17L251.09 36.75L245.99 39.52L241.01 42.48L236.16 45.63L231.44 48.95L226.85 52.45L222.4 56.12L218.1 59.96L213.95 63.95L209.96 68.1L206.13 72.4L202.46 76.85L198.96 81.43L195.63 86.15L192.49 91.01L189.52 95.99L186.75 101.09L184.17 106.3L181.8 111.63L179.62 117.07L177.65 122.61L175.9 128.24L174.36 133.97L173.05 139.78L171.96 145.68L171.11 151.65L170.5 157.7L170.12 163.82L170 170L170.12 176.18L170.5 182.29L171.11 188.34L171.96 194.31L173.05 200.21L174.36 206.02L175.9 211.75L177.65 217.39L179.62 222.92L181.8 228.36L184.17 233.69L186.75 238.91L189.52 244.01L192.49 248.98L195.63 253.84L198.96 258.56L202.46 263.15L206.13 267.59L209.96 271.89L213.95 276.04L218.1 280.04L222.4 283.87L226.85 287.54L231.44 291.04L236.16 294.36L241.01 297.51L245.99 300.47L251.09 303.24L256.31 305.82L261.64 308.2L267.07 310.38L272.61 312.34L278.24 314.1L283.97 315.63L289.79 316.95L295.68 318.03L301.66 318.88L307.7 319.5L313.82 319.87L320 320L320 320L320 320L326.18 320.13L332.3 320.5L338.34 321.12L344.32 321.97L350.22 323.05L356.03 324.37L361.76 325.9L367.39 327.66L372.93 329.62L378.37 331.8L383.69 334.18L388.91 336.76L394.01 339.53L398.99 342.49L403.84 345.64L408.57 348.96L413.15 352.46L417.6 356.13L421.9 359.96L426.05 363.96L430.04 368.11L433.88 372.41L437.55 376.85L441.04 381.44L444.37 386.16L447.52 391.01L450.48 395.99L453.25 401.09L455.83 406.31L458.21 411.64L460.38 417.08L462.35 422.61L464.1 428.25L465.64 433.98L466.95 439.79L468.04 445.69L468.89 451.66L469.5 457.71L469.88 463.82L470 470L469.88 476.18L469.5 482.3L468.89 488.35L468.04 494.32L466.95 500.22L465.64 506.03L464.1 511.76L462.35 517.39L460.38 522.93L458.21 528.37L455.83 533.7L453.25 538.91L450.48 544.01L447.52 548.99L444.37 553.85L441.04 558.57L437.55 563.15L433.88 567.6L430.04 571.9L426.05 576.05L421.9 580.04L417.6 583.88L413.15 587.55L408.57 591.05L403.84 594.37L398.99 597.52L394.01 600.48L388.91 603.25L383.69 605.83L378.37 608.21L372.93 610.38L367.39 612.35L361.76 614.11L356.03 615.64L350.22 616.95L344.32 618.04L338.34 618.89L332.3 619.51L326.18 619.88L320 620L313.82 619.88L313.63 619.87L307.64 619.75L295.41 619L283.31 617.77L271.36 616.07L259.57 613.9L247.94 611.27L236.49 608.2L225.22 604.69L214.14 600.76L203.27 596.4L192.62 591.65L182.18 586.49L171.98 580.95L162.02 575.02L152.32 568.73L142.87 562.08L133.7 555.08L124.81 547.74L116.21 540.08L107.91 532.09L99.92 523.79L92.25 515.19L84.91 506.3L77.91 497.12L71.26 487.68L64.97 477.97L59.05 468.02L53.51 457.81L48.35 447.38L43.59 436.72L39.24 425.85L35.3 414.78L31.8 403.51L28.72 392.05L26.1 380.42L23.93 368.63L22.22 356.68L20.99 344.59L20.25 332.35L20 320L20.25 307.64L20.99 295.41L22.22 283.31L23.93 271.36L26.1 259.57L28.72 247.94L31.8 236.48L35.3 225.22L39.24 214.14L43.59 203.27L48.35 192.61L53.51 182.18L59.05 171.98L64.97 162.02L71.26 152.31L77.91 142.87L84.91 133.7L92.25 124.8L99.92 116.2L107.91 107.91L116.21 99.92L124.81 92.25L133.7 84.91L142.87 77.91L152.32 71.26L162.02 64.97L171.98 59.05L182.18 53.5L192.62 48.35L203.27 43.59L214.14 39.24L225.22 35.3L236.49 31.79L247.94 28.72L259.57 26.1L271.36 23.93L283.31 22.22L295.41 20.99L307.64 20.25L320 20L313.82 20.12L307.7 20.49Z" id="a9QqGcsbUR"></path><path d="M307.7 319.5L301.66 318.88L295.68 318.03L289.79 316.95L283.97 315.63L278.24 314.1L272.61 312.34L267.07 310.38L261.64 308.2L256.31 305.82L251.09 303.24L245.99 300.47L241.01 297.51L236.16 294.36L231.44 291.04L226.85 287.54L222.4 283.87L218.1 280.04L213.95 276.04L209.96 271.89L206.13 267.59L202.46 263.15L198.96 258.56L195.63 253.84L192.49 248.98L189.53 244.01L186.75 238.91L184.17 233.69L181.8 228.36L179.62 222.92L177.65 217.39L175.9 211.75L174.36 206.02L173.05 200.21L171.96 194.31L171.11 188.34L170.5 182.29L170.12 176.17L170 170L170.12 163.82L170.5 157.7L171.11 151.65L171.96 145.68L173.05 139.78L174.36 133.97L175.9 128.24L177.65 122.61L179.62 117.07L181.8 111.63L184.17 106.3L186.75 101.09L189.53 95.99L192.49 91.01L195.63 86.15L198.96 81.43L202.46 76.85L206.13 72.4L209.96 68.1L213.95 63.95L218.1 59.96L222.4 56.12L226.85 52.45L231.44 48.95L236.16 45.63L241.01 42.48L245.99 39.52L251.09 36.75L256.31 34.17L261.64 31.79L267.07 29.62L272.61 27.65L278.24 25.89L283.97 24.36L289.79 23.05L295.68 21.96L301.66 21.11L307.7 20.49L313.82 20.12L320 20L326.18 20.12L326.18 20.12L332.36 20.25L344.59 20.99L356.68 22.22L368.63 23.93L380.43 26.1L392.06 28.72L403.51 31.79L414.78 35.3L425.86 39.24L436.73 43.59L447.38 48.35L457.82 53.5L468.02 59.05L477.98 64.97L487.68 71.26L497.13 77.91L506.3 84.91L515.19 92.25L523.79 99.92L532.09 107.91L540.08 116.2L547.75 124.8L555.09 133.7L562.08 142.87L568.73 152.31L575.03 162.02L580.95 171.98L586.49 182.18L591.65 192.61L596.41 203.27L600.76 214.14L604.69 225.22L608.2 236.48L611.27 247.94L613.9 259.57L616.07 271.36L617.77 283.31L619 295.41L619.75 307.64L620 320L619.75 332.35L619 344.59L617.77 356.68L616.07 368.63L613.9 380.42L611.27 392.05L608.2 403.51L604.69 414.78L600.76 425.85L596.41 436.72L591.65 447.38L586.49 457.81L580.95 468.02L575.03 477.97L568.73 487.68L562.08 497.12L555.09 506.3L547.75 515.19L540.08 523.79L532.09 532.09L523.79 540.07L515.19 547.74L506.3 555.08L497.13 562.08L487.68 568.73L477.98 575.02L468.02 580.95L457.82 586.49L447.38 591.65L436.73 596.4L425.86 600.76L414.78 604.69L403.51 608.2L392.06 611.27L380.43 613.9L368.63 616.07L356.68 617.77L344.59 619L332.36 619.75L320 620L326.18 619.87L332.29 619.5L338.34 618.88L344.32 618.03L350.21 616.95L356.03 615.63L361.75 614.1L367.39 612.34L372.93 610.38L378.36 608.2L383.69 605.82L388.91 603.24L394.01 600.47L398.99 597.51L403.84 594.36L408.56 591.04L413.15 587.54L417.59 583.87L421.89 580.04L426.04 576.04L430.04 571.89L433.87 567.59L437.54 563.15L441.04 558.56L444.37 553.84L447.51 548.98L450.47 544.01L453.25 538.91L455.82 533.69L458.2 528.36L460.38 522.92L462.35 517.39L464.1 511.75L465.64 506.02L466.95 500.21L468.03 494.31L468.89 488.34L469.5 482.29L469.87 476.17L470 470L469.87 463.82L469.5 457.7L468.89 451.65L468.03 445.68L466.95 439.78L465.64 433.97L464.1 428.24L462.35 422.61L460.38 417.07L458.2 411.63L455.82 406.3L453.25 401.09L450.47 395.99L447.51 391.01L444.37 386.15L441.04 381.43L437.54 376.85L433.87 372.4L430.04 368.1L426.04 363.95L421.89 359.96L417.59 356.12L413.15 352.45L408.56 348.95L403.84 345.63L398.99 342.48L394.01 339.52L388.91 336.75L383.69 334.17L378.36 331.79L372.93 329.62L367.39 327.65L361.75 325.89L356.03 324.36L350.21 323.05L344.32 321.96L338.34 321.11L332.29 320.49L326.18 320.12L320 320L320 320L313.82 319.87L307.7 319.5Z" id="b1fJchOIvG"></path><path d="M370 170C370 197.59 347.6 220 320 220C292.4 220 270 197.59 270 170C270 142.4 292.4 120 320 120C347.6 120 370 142.4 370 170Z" id="b78ARdNRAS"></path><path d="M370 470C370 497.6 347.59 520 320 520C292.4 520 270 497.6 270 470C270 442.4 292.4 420 320 420C347.59 420 370 442.4 370 470Z" id="b1PYNoPQzL"></path></defs><g><g><g><use xlink:href="#dfkJ6go2H" opacity="1" fill="#9b81ba" fill-opacity="1"></use><g><use xlink:href="#dfkJ6go2H" opacity="1" fill-opacity="0" stroke="#1e7622" stroke-width="0" stroke-opacity="1"></use></g></g><g><g><use xlink:href="#a2MfxfRzhy" opacity="1" fill-opacity="0" stroke="#000000" stroke-width="1" stroke-opacity="1"></use></g></g><g><use xlink:href="#a9QqGcsbUR" opacity="1" fill="#ffffff" fill-opacity="1"></use><g><use xlink:href="#a9QqGcsbUR" opacity="1" fill-opacity="0" stroke="#1e7622" stroke-width="0" stroke-opacity="1"></use></g></g><g><use xlink:href="#b1fJchOIvG" opacity="1" fill="#9b81ba" fill-opacity="1"></use><g><use xlink:href="#b1fJchOIvG" opacity="1" fill-opacity="0" stroke="#1e7622" stroke-width="0" stroke-opacity="1"></use></g></g><g><use xlink:href="#b78ARdNRAS" opacity="1" fill="#ad4482" fill-opacity="1"></use></g><g><use xlink:href="#b1PYNoPQzL" opacity="1" fill="#ad4482" fill-opacity="1"></use></g></g></g></svg>